<svg xmlns="http://www.w3.org/2000/svg" xmlns:xlink="http://www.w3.org/1999/xlink" width="500" zoomAndPan="magnify" viewBox="0 0 375 374.999991" height="500" preserveAspectRatio="xMidYMid meet" version="1.0"><defs><g/><clipPath id="8b76c16c3a"><path d="M 75 0 L 300 0 C 341.421875 0 375 33.578125 375 75 L 375 300 C 375 341.421875 341.421875 375 300 375 L 75 375 C 33.578125 375 0 341.421875 0 300 L 0 75 C 0 33.578125 33.578125 0 75 0 Z M 75 0 " clip-rule="nonzero"/></clipPath></defs><g clip-path="url(#8b76c16c3a)"><rect x="-37.5" width="450" fill="#000000" y="-37.499999" height="449.999989" fill-opacity="1"/><path stroke-linecap="butt" transform="matrix(0.75, 0, 0, 0.75, 0.0000045, -0.000000000000021316)" fill="none" stroke-linejoin="miter" d="M 100.000007 0.000000000000028422 L 400.000046 0.000000000000028422 C 455.22922 0.000000000000028422 500.000059 44.770839 500.000059 100.000013 L 500.000059 400.000052 C 500.000059 455.229226 455.22922 500.000065 400.000046 500.000065 L 100.000007 500.000065 C 44.770833 500.000065 -0.000006 455.229226 -0.000006 400.000052 L -0.000006 100.000013 C -0.000006 44.770839 44.770833 0.000000000000028422 100.000007 0.000000000000028422 Z M 100.000007 0.000000000000028422 " stroke="#2e2e2e" stroke-width="40" stroke-opacity="1" stroke-miterlimit="4"/></g><g fill="#52a8ff" fill-opacity="1"><g transform="translate(50.478517, 265.124983)"><g><path d="M 80.171875 -162.796875 L 113.703125 -162.796875 L 113.703125 -50.09375 C 113.703125 -39.726562 111.410156 -30.578125 106.828125 -22.640625 C 102.242188 -14.703125 95.773438 -8.570312 87.421875 -4.25 C 79.078125 0.0703125 69.648438 2.234375 59.140625 2.234375 C 41.921875 2.234375 28.503906 -2.140625 18.890625 -10.890625 C 9.273438 -19.648438 4.46875 -32.046875 4.46875 -48.078125 L 38.234375 -48.078125 C 38.234375 -40.097656 39.910156 -34.207031 43.265625 -30.40625 C 46.617188 -26.601562 51.910156 -24.703125 59.140625 -24.703125 C 65.554688 -24.703125 70.664062 -26.898438 74.46875 -31.296875 C 78.269531 -35.703125 80.171875 -41.96875 80.171875 -50.09375 Z M 80.171875 -162.796875 "/></g></g><g transform="translate(178.386702, 265.124983)"><g><path d="M 74.796875 -59.59375 L 48.078125 -59.59375 L 48.078125 0 L 14.53125 0 L 14.53125 -162.796875 L 75.03125 -162.796875 C 94.257812 -162.796875 109.085938 -158.507812 119.515625 -149.9375 C 129.953125 -141.363281 135.171875 -129.25 135.171875 -113.59375 C 135.171875 -102.488281 132.765625 -93.226562 127.953125 -85.8125 C 123.148438 -78.394531 115.867188 -72.488281 106.109375 -68.09375 L 141.328125 -1.5625 L 141.328125 0 L 105.328125 0 Z M 48.078125 -86.765625 L 75.140625 -86.765625 C 83.554688 -86.765625 90.078125 -88.90625 94.703125 -93.1875 C 99.328125 -97.476562 101.640625 -103.390625 101.640625 -110.921875 C 101.640625 -118.597656 99.457031 -124.632812 95.09375 -129.03125 C 90.726562 -133.425781 84.039062 -135.625 75.03125 -135.625 L 48.078125 -135.625 Z M 48.078125 -86.765625 "/></g></g></g></svg>